<svg xmlns="http://www.w3.org/2000/svg" viewBox="0 0 512 512" width="512" height="512"><rect x="0" y="0" width="512" height="512" rx="102.40" ry="102.40" fill="#20283A"/><g transform="translate(34.135,367.104) scale(0.15872,-0.15872)" fill="#FAF7F1"><path d="M342 567H927L932 469H335ZM454 43Q454 24 440.5 12.0Q427 0 397 0H83Q54 0 40.0 11.5Q26 23 26 43Q26 57 34.0 67.0Q42 77 63 87L96 100Q126 114 143.5 139.0Q161 164 181 227L501 1214Q514 1257 507.5 1276.5Q501 1296 466 1308Q440 1318 429.0 1329.5Q418 1341 418 1358Q418 1378 432.5 1389.0Q447 1400 476 1400H957Q987 1400 1001.0 1389.0Q1015 1378 1015 1358Q1015 1340 1004.0 1328.5Q993 1317 969 1310Q942 1302 937.0 1287.5Q932 1273 943 1240L1288 196Q1303 149 1321.0 126.0Q1339 103 1371 94Q1399 83 1408.0 72.0Q1417 61 1417 43Q1417 24 1403.0 12.0Q1389 0 1360 0H919Q889 0 875.0 12.0Q861 24 861 43Q861 60 871.0 70.0Q881 80 902 87L958 99Q984 107 983.5 124.5Q983 142 971 180L615 1281L648 1303L305 241Q291 199 292.0 173.0Q293 147 310.5 130.0Q328 113 363 98L415 86Q434 79 444.0 69.5Q454 60 454 43Z"/><path transform="translate(1456,0)" d="M556 158Q556 137 568.5 123.5Q581 110 605 103L664 91Q704 78 704 43Q704 24 690.0 12.0Q676 0 647 0H157Q128 0 114.5 12.0Q101 24 101 43Q101 78 141 91L200 103Q224 110 236.5 123.5Q249 137 249 158V1242Q249 1263 236.5 1276.5Q224 1290 200 1297L141 1309Q101 1322 101 1357Q101 1377 114.5 1388.5Q128 1400 157 1400H647Q676 1400 690.0 1388.5Q704 1377 704 1357Q704 1322 664 1309L605 1297Q581 1290 568.5 1276.5Q556 1263 556 1242Z"/></g><circle cx="436.87" cy="330.24" r="36.86" fill="#C25B36"/></svg>